<?xml version="1.0" encoding="UTF-8"?>
<svg width="20px" height="23px" viewBox="0 0 20 23" version="1.1" xmlns="http://www.w3.org/2000/svg" xmlns:xlink="http://www.w3.org/1999/xlink">
    <!-- Generator: Sketch 64 (93537) - https://sketch.com -->
    <title>安卓</title>
    <desc>Created with Sketch.</desc>
    <g id="页面-1" stroke="none" stroke-width="1" fill="none" fill-rule="evenodd">
        <g id="普教云@1380（1440-2560）" transform="translate(-1380.000000, -2816.000000)" fill="#FFFFFF" fill-rule="nonzero">
            <g id="编组-14" transform="translate(1157.000000, 2453.000000)">
                <g id="编组-14备份-2" transform="translate(186.386207, 352.000000)">
                    <g id="编组-4" transform="translate(37.000000, 11.000000)">
                        <g id="安卓">
                            <path d="M1.71570384,7.17227722 C0.97444246,7.17227722 0.374038542,7.7912213 0.374038542,8.55524618 L0.374038542,13.958244 C0.374038542,14.7225345 0.975026821,15.3415848 1.71570384,15.3415848 C2.45638085,15.3415848 3.05736913,14.7226407 3.05736913,13.958244 L3.05736913,8.55524618 C3.05736913,7.7917791 2.45720427,7.17227722 1.71570384,7.17227722 Z M17.9012696,7.17227722 C17.1600082,7.17227722 16.5592325,7.7912213 16.5592325,8.55524618 L16.5592325,13.958244 C16.5592325,14.7225345 17.1606192,15.3415848 17.9012696,15.3415848 C18.6419201,15.3415848 19.2429349,14.7226407 19.2429349,13.958244 L19.2429349,8.55524618 C19.2429349,7.7917791 18.6419466,7.17227722 17.9012696,7.17227722 Z M3.86482262,17.0871495 C3.86482262,17.6736615 4.33310793,18.1485873 4.91104053,18.1485873 L6.10550008,18.1485873 L6.10550008,21.1551224 C6.10550008,21.9194129 6.70648836,22.5384632 7.44716538,22.5384632 C8.18784239,22.5384632 8.78920254,21.9195192 8.78920254,21.1551224 L8.78920254,18.1485873 L10.8766978,18.1485873 L10.8766978,21.1551224 C10.8766978,21.9194129 11.4780845,22.5384632 12.218735,22.5384632 C12.9593855,22.5384632 13.5604003,21.9195192 13.5604003,21.1551224 L13.5604003,18.1485873 L14.7548599,18.1485873 C15.3325268,18.1485873 15.8010778,17.6735819 15.8010778,17.0871495 L15.8010778,7.21395275 L3.86227268,7.21395275 L3.86227268,17.0871495 L3.86482262,17.0871495 Z M12.6391293,2.09880567 L13.7416583,0.474920787 C13.8070005,0.378687227 13.7909837,0.252066918 13.7058795,0.192382454 C13.6199254,0.132512058 13.4974753,0.162898808 13.4321332,0.258202703 L12.2862021,1.94602195 C11.5317395,1.64465127 10.6929164,1.475957 9.80888516,1.475957 C8.92485387,1.475957 8.08597772,1.64419971 7.33156823,1.94602195 L6.18563716,0.258202703 C6.12029503,0.161969143 5.99755275,0.132751115 5.9118908,0.192382454 C5.82593668,0.252305974 5.81026519,0.378421609 5.876112,0.474920787 L6.97864101,2.09880567 C5.22532026,2.92703052 3.99471004,4.49914638 3.83868577,6.33472916 L15.7774908,6.33472916 C15.6200057,4.50002292 14.3908298,2.92636648 12.6375356,2.09880567 L12.6391293,2.09880567 Z M7.28960052,4.65774715 C6.92506577,4.65774715 6.62940589,4.35778424 6.62940589,3.98767151 C6.62940589,3.61793064 6.9249064,3.31759588 7.28960052,3.31759588 C7.65429463,3.31759588 7.94979515,3.61795721 7.94979515,3.98767151 C7.94979515,4.3583686 7.65429463,4.65774715 7.28960052,4.65774715 Z M12.4084131,4.65774715 C12.0438784,4.65774715 11.7482185,4.35778424 11.7482185,3.98767151 C11.7482185,3.61793064 12.0440909,3.31759588 12.4084131,3.31759588 C12.7733729,3.31759588 13.0686078,3.61795721 13.0686078,3.98767151 C13.0686078,4.3583686 12.7731072,4.65774715 12.4084131,4.65774715 Z" id="形状"></path>
                        </g>
                    </g>
                </g>
            </g>
        </g>
    </g>
</svg>