<?xml version="1.0" encoding="UTF-8"?>
<svg width="19px" height="23px" viewBox="0 0 19 23" version="1.1" xmlns="http://www.w3.org/2000/svg" xmlns:xlink="http://www.w3.org/1999/xlink">
    <!-- Generator: Sketch 64 (93537) - https://sketch.com -->
    <title>苹果</title>
    <desc>Created with Sketch.</desc>
    <g id="页面-1" stroke="none" stroke-width="1" fill="none" fill-rule="evenodd">
        <g id="普教云@1380（1440-2560）" transform="translate(-1380.000000, -2749.000000)" fill="#FFFFFF" fill-rule="nonzero">
            <g id="编组-14" transform="translate(1157.000000, 2453.000000)">
                <g id="编组-13备份-2" transform="translate(186.386207, 285.000000)">
                    <g id="编组-6" transform="translate(37.000000, 11.500000)">
                        <g id="苹果">
                            <path d="M15.3191979,11.548463 C15.3478054,14.8744765 18.2288867,15.9736103 18.2635324,15.9856563 C18.2469701,16.0631982 17.8125854,17.5726279 16.7322712,19.1046481 C15.8296247,20.4544764 14.884819,21.773437 13.3829118,21.7975291 C11.9246754,21.8306539 11.4338271,20.9392995 9.76103432,20.9392995 C8.07243024,20.9392995 7.54997444,21.7734391 6.15120286,21.8306526 C4.72081943,21.8833508 3.62845914,20.3904831 2.69345026,19.0527029 C0.824165917,16.3236837 -0.631049456,11.3602588 1.31952981,7.98305487 C2.26433544,6.32682165 3.98831869,5.25930183 5.83051325,5.23145731 C7.26240191,5.20134407 8.59115069,6.19809509 9.47121674,6.19809509 C10.3339642,6.19809509 11.9766482,5.00636013 13.6697701,5.18478255 C14.3781851,5.20510903 16.3950156,5.46483535 17.6959263,7.361218 C17.5905296,7.42445598 15.2943894,8.77428495 15.3184815,11.5492178 L15.3191979,11.548463 Z M13.1548085,3.52024288 C12.3696036,4.44622681 11.1131247,5.15539656 9.88977153,5.06355014 C9.7294182,3.81384697 10.3489994,2.48509605 11.0431105,1.67355397 C11.8275628,0.753593066 13.1894414,0.0481885093 14.2787891,6.39613874e-06 C14.4218275,1.29939691 13.9068899,2.5792067 13.1548106,3.52024927 L13.1548085,3.52024288 Z" id="形状"></path>
                        </g>
                    </g>
                </g>
            </g>
        </g>
    </g>
</svg>